<?xml version="1.0" encoding="UTF-8" standalone="no"?>
<svg
   height="300px"
   width="300px"
   fill="#000000"
   version="1.1"
   x="0px"
   y="0px"
   viewBox="-20.794 -3 100 100"
   overflow="visible"
   enable-background="new -20.794 -3 100 100"
   xml:space="preserve"
   id="svg6"
   sodipodi:docname="mic_muted_2.svg"
   inkscape:version="1.1 (c4e8f9ed74, 2021-05-24)"
   xmlns:inkscape="http://www.inkscape.org/namespaces/inkscape"
   xmlns:sodipodi="http://sodipodi.sourceforge.net/DTD/sodipodi-0.dtd"
   xmlns="http://www.w3.org/2000/svg"
   xmlns:svg="http://www.w3.org/2000/svg"><defs
     id="defs10" /><sodipodi:namedview
     id="namedview8"
     pagecolor="#ffffff"
     bordercolor="#666666"
     borderopacity="1.0"
     inkscape:pageshadow="2"
     inkscape:pageopacity="0.0"
     inkscape:pagecheckerboard="0"
     showgrid="false"
     inkscape:zoom="2.8833333"
     inkscape:cx="160.75145"
     inkscape:cy="137.86127"
     inkscape:window-width="1906"
     inkscape:window-height="1016"
     inkscape:window-x="0"
     inkscape:window-y="0"
     inkscape:window-maximized="1"
     inkscape:current-layer="svg6" /><path
     id="path2"
     style="stroke-width:3"
     d="M 150 9 C 124.08 9 103.07422 30.014782 103.07422 55.925781 L 103.07422 150.18359 C 103.07334 157.75292 104.90628 164.87856 108.08789 171.20898 L 194.85352 42.109375 C 188.95098 22.939808 171.10191 9 150 9 z M 196.92969 85.203125 L 126.13477 190.53906 C 133.13303 194.6861 141.27338 197.10938 150 197.10938 C 175.914 197.10938 196.92969 176.10359 196.92969 150.18359 L 196.92969 85.203125 z M 62.382812 131.10547 L 62.382812 150.24609 C 62.382812 172.10239 70.44364 192.09767 83.726562 207.45898 L 94.697266 191.13477 C 86.217422 179.69568 81.191406 165.54944 81.191406 150.24609 L 81.191406 131.10547 L 62.382812 131.10547 z M 218.80273 131.10547 L 218.80273 150.24609 C 218.80273 188.19009 187.94009 219.05078 149.99609 219.05078 C 136.75476 219.05078 124.38258 215.28331 113.87695 208.77734 L 103.38672 224.38867 C 114.38864 231.32819 127.02949 235.89664 140.5918 237.35156 L 140.5918 272.1875 L 88.845703 272.1875 L 88.845703 291 L 211.1543 291 L 211.1543 272.1875 L 159.4043 272.1875 L 159.4043 237.35156 C 203.3093 232.64456 237.61523 195.38409 237.61523 150.24609 L 237.61523 131.10547 L 218.80273 131.10547 z "
     transform="matrix(0.33333333,0,0,0.33333333,-20.794,-3)" /><rect
     style="fill:#000000;fill-rule:evenodd;stroke-width:0.307916"
     id="rect55"
     width="4.3844833"
     height="89.276558"
     x="44.961884"
     y="-26.517612"
     transform="rotate(33.90421)" /></svg>
