<?xml version="1.0" encoding="UTF-8" standalone="no"?>
<!-- Created with Inkscape (http://www.inkscape.org/) -->

<svg
   xmlns:dc="http://purl.org/dc/elements/1.1/"
   xmlns:cc="http://creativecommons.org/ns#"
   xmlns:rdf="http://www.w3.org/1999/02/22-rdf-syntax-ns#"
   xmlns:svg="http://www.w3.org/2000/svg"
   xmlns="http://www.w3.org/2000/svg"
   xmlns:xlink="http://www.w3.org/1999/xlink"
   xmlns:sodipodi="http://sodipodi.sourceforge.net/DTD/sodipodi-0.dtd"
   xmlns:inkscape="http://www.inkscape.org/namespaces/inkscape"
   version="1.0"
   width="96"
   height="96"
   id="svg2"
   style="display:inline"
   inkscape:version="0.92.4 5da689c313, 2019-01-14"
   sodipodi:docname="volume_high.svg"
   inkscape:export-filename="/home/daniel/valatest/transparent/data/images/volume_muted.png"
   inkscape:export-xdpi="96"
   inkscape:export-ydpi="96">
  <sodipodi:namedview
     pagecolor="#ffffff"
     bordercolor="#666666"
     borderopacity="1"
     objecttolerance="10"
     gridtolerance="10"
     guidetolerance="10"
     inkscape:pageopacity="0"
     inkscape:pageshadow="2"
     inkscape:window-width="1566"
     inkscape:window-height="866"
     id="namedview25"
     showgrid="false"
     inkscape:zoom="4.9166667"
     inkscape:cx="93.355972"
     inkscape:cy="68.646481"
     inkscape:window-x="17"
     inkscape:window-y="17"
     inkscape:window-maximized="1"
     inkscape:current-layer="svg2" />
  <defs
     id="defs4">
    <linearGradient
       id="linearGradient4081">
      <stop
         id="stop4083"
         style="stop-color:#aaaaaa;stop-opacity:1"
         offset="0" />
      <stop
         id="stop4085"
         style="stop-color:#f0f0f0;stop-opacity:1"
         offset="1" />
    </linearGradient>
    <linearGradient
       x1="4.882854"
       y1="-33.967701"
       x2="4.882854"
       y2="-43.829292"
       id="linearGradient2955"
       xlink:href="#linearGradient4081"
       gradientUnits="userSpaceOnUse"
       gradientTransform="matrix(4.4444444,0,0,4.4444444,3.555556,221.04167)" />
    <linearGradient
       id="linearGradient3183">
      <stop
         id="stop3185"
         style="stop-color:#c80000;stop-opacity:1"
         offset="0" />
      <stop
         id="stop3187"
         style="stop-color:#f3604d;stop-opacity:1"
         offset="1" />
    </linearGradient>
    <linearGradient
       x1="11"
       y1="11.015625"
       x2="19"
       y2="11.015625"
       id="linearGradient2927"
       xlink:href="#linearGradient3183"
       gradientUnits="userSpaceOnUse"
       gradientTransform="matrix(0,-3.0000004,2.9652505,0,27.335916,93.000009)" />
  </defs>
  <metadata
     id="metadata7">
    <rdf:RDF>
      <cc:Work
         rdf:about="">
        <dc:format>image/svg+xml</dc:format>
        <dc:type
           rdf:resource="http://purl.org/dc/dcmitype/StillImage" />
        <dc:title></dc:title>
      </cc:Work>
    </rdf:RDF>
  </metadata>
  <path
     style="display:inline;fill:#000000;fill-opacity:1;fill-rule:nonzero;stroke:none"
     id="path3536-7"
     inkscape:connector-curvature="0"
     d="m 72.15625,10.15625 -6.09375,6.375 c 8.01839,8.018391 12.90625,19.174259 12.90625,31.40625 0,12.373534 -5.00499,23.616921 -13.1875,31.65625 l 6.25,6.25 C 81.84839,76.169288 88,62.798829 88,47.9375 88,33.146834 81.89137,19.82037 72.15625,10.15625 Z m -10.1875,10.1875 -6.375,6.375 c 5.212153,5.558897 8.46875,12.971677 8.46875,21.1875 0,8.28201 -3.306202,15.770095 -8.59375,21.34375 l 6.3125,6.3125 C 68.68267,68.375275 72.9375,58.650709 72.9375,47.90625 c 0,-10.670756 -4.154539,-20.38473 -10.96875,-27.5625 z M 30.65625,26 c -0.242952,-3.5e-5 -0.321146,0.04141 -0.5625,0.125 -0.314988,0.121899 -0.692368,0.306153 -0.96875,0.5625 L 21.125,34 H 12.3125 C 9.8890575,34 7.9999995,35.900738 7.9999995,38.40625 V 57.4375 c 0,2.505512 1.889059,4.53125 4.3125005,4.53125 H 21.25 l 7.875,7.375 c 0.999696,0.867876 2.186633,0.86486 3.1875,0 1.000869,-0.864869 1.693987,-2.523874 1.6875,-4.25 V 57.375 38.65625 30.96875 c 0.01442,-1.479075 -0.478541,-2.946409 -1.25,-3.875 C 32.171404,26.397305 31.38511,26.000111 30.65625,26 Z m 21,4.65625 -6.4375,6.4375 c 2.367766,2.999033 3.84375,6.726611 3.84375,10.84375 0,4.181551 -1.474761,7.982101 -3.90625,11 l 6.375,6.40625 c 4.014674,-4.675512 6.4375,-10.768671 6.4375,-17.40625 0,-6.574734 -2.369267,-12.624424 -6.3125,-17.28125 z"
     inkscape:export-xdpi="96"
     inkscape:export-ydpi="96" />
</svg>
