<?xml version="1.0" encoding="UTF-8" standalone="no"?>
<!-- Created with Inkscape (http://www.inkscape.org/) -->

<svg
   xmlns:dc="http://purl.org/dc/elements/1.1/"
   xmlns:cc="http://creativecommons.org/ns#"
   xmlns:rdf="http://www.w3.org/1999/02/22-rdf-syntax-ns#"
   xmlns:svg="http://www.w3.org/2000/svg"
   xmlns="http://www.w3.org/2000/svg"
   xmlns:xlink="http://www.w3.org/1999/xlink"
   xmlns:sodipodi="http://sodipodi.sourceforge.net/DTD/sodipodi-0.dtd"
   xmlns:inkscape="http://www.inkscape.org/namespaces/inkscape"
   version="1.0"
   width="96"
   height="96"
   id="svg2"
   style="display:inline"
   inkscape:version="0.92.4 5da689c313, 2019-01-14"
   sodipodi:docname="volume_low.svg"
   inkscape:export-filename="/home/daniel/valatest/transparent/data/images/volume_muted.png"
   inkscape:export-xdpi="96"
   inkscape:export-ydpi="96">
  <sodipodi:namedview
     pagecolor="#ffffff"
     bordercolor="#666666"
     borderopacity="1"
     objecttolerance="10"
     gridtolerance="10"
     guidetolerance="10"
     inkscape:pageopacity="0"
     inkscape:pageshadow="2"
     inkscape:window-width="1566"
     inkscape:window-height="866"
     id="namedview25"
     showgrid="false"
     inkscape:zoom="4.9166667"
     inkscape:cx="93.355972"
     inkscape:cy="68.646481"
     inkscape:window-x="17"
     inkscape:window-y="17"
     inkscape:window-maximized="1"
     inkscape:current-layer="svg2" />
  <defs
     id="defs4">
    <linearGradient
       id="linearGradient4081">
      <stop
         id="stop4083"
         style="stop-color:#aaaaaa;stop-opacity:1"
         offset="0" />
      <stop
         id="stop4085"
         style="stop-color:#f0f0f0;stop-opacity:1"
         offset="1" />
    </linearGradient>
    <linearGradient
       x1="4.882854"
       y1="-33.967701"
       x2="4.882854"
       y2="-43.829292"
       id="linearGradient2955"
       xlink:href="#linearGradient4081"
       gradientUnits="userSpaceOnUse"
       gradientTransform="matrix(4.4444444,0,0,4.4444444,3.555556,221.04167)" />
    <linearGradient
       id="linearGradient3183">
      <stop
         id="stop3185"
         style="stop-color:#c80000;stop-opacity:1"
         offset="0" />
      <stop
         id="stop3187"
         style="stop-color:#f3604d;stop-opacity:1"
         offset="1" />
    </linearGradient>
    <linearGradient
       x1="11"
       y1="11.015625"
       x2="19"
       y2="11.015625"
       id="linearGradient2927"
       xlink:href="#linearGradient3183"
       gradientUnits="userSpaceOnUse"
       gradientTransform="matrix(0,-3.0000004,2.9652505,0,27.335916,93.000009)" />
  </defs>
  <metadata
     id="metadata7">
    <rdf:RDF>
      <cc:Work
         rdf:about="">
        <dc:format>image/svg+xml</dc:format>
        <dc:type
           rdf:resource="http://purl.org/dc/dcmitype/StillImage" />
        <dc:title></dc:title>
      </cc:Work>
    </rdf:RDF>
  </metadata>
  <path
     style="display:inline;fill:#000000;fill-opacity:1;fill-rule:nonzero;stroke:none"
     id="path3536-3"
     inkscape:connector-curvature="0"
     d="m 30.65625,26.046875 c -0.242961,-3.5e-5 -0.32115,0.04141 -0.5625,0.125 -0.314991,0.121899 -0.692371,0.306153 -0.96875,0.5625 l -8,7.3125 h -8.8125 c -2.4234505,0 -4.3125005,1.900738 -4.3125005,4.40625 v 19.03125 c 0,2.505512 1.88905,4.53125 4.3125005,4.53125 H 21.25 l 7.875,7.375 c 0.99969,0.867876 2.18663,0.86486 3.1875,0 1.000869,-0.864869 1.69398,-2.523874 1.6875,-4.25 v -7.71875 -18.71875 -7.6875 c 0.0144,-1.479075 -0.478541,-2.946409 -1.25,-3.875 -0.578601,-0.696445 -1.36489,-1.093639 -2.09375,-1.09375 z m 21,4.65625 -6.4375,6.4375 c 2.367759,2.999033 3.84375,6.726611 3.84375,10.84375 0,4.181551 -1.474761,7.982101 -3.90625,11 l 6.375,6.40625 c 4.01467,-4.675512 6.4375,-10.768671 6.4375,-17.40625 0,-6.574734 -2.369271,-12.624424 -6.3125,-17.28125 z"
     sodipodi:nodetypes="scccssssccsccccssccsccsc"
     inkscape:export-xdpi="96"
     inkscape:export-ydpi="96" />
</svg>
